<svg width="88" height="644" viewBox="0 0 88 644" fill="none" xmlns="http://www.w3.org/2000/svg">
<path d="M86 643.117L0.799995 643.117L0.799993 606.397C0.799993 602.237 1.67999 598.397 3.43999 594.877C5.11999 591.357 7.35999 588.357 10.16 585.877C12.88 583.317 16.04 581.317 19.64 579.877C23.16 578.437 26.72 577.717 30.32 577.717C34.08 577.717 37.76 578.397 41.36 579.757C44.88 581.117 48.04 583.037 50.84 585.517C53.56 587.917 55.76 590.877 57.44 594.397C59.04 597.837 59.84 601.637 59.84 605.797L59.84 619.717L86 619.717L86 643.117ZM39.44 619.717L39.44 607.357C39.44 605.917 38.8 604.597 37.52 603.397C36.16 602.117 33.76 601.477 30.32 601.477C26.8 601.477 24.4 602.197 23.12 603.637C21.84 605.077 21.2 606.517 21.2 607.957L21.2 619.717L39.44 619.717ZM86 568.352L0.799992 568.352L0.79999 529.232C0.79999 525.072 1.67999 521.232 3.43999 517.712C5.11999 514.192 7.35999 511.192 10.16 508.712C12.88 506.152 16.04 504.152 19.64 502.712C23.16 501.272 26.72 500.552 30.32 500.552C35.28 500.552 39.92 501.632 44.24 503.792C48.48 505.952 51.96 508.952 54.68 512.792L86 494.792L86 521.192L59.84 536.192L59.84 544.952L86 544.952L86 568.352ZM39.44 544.952L39.44 530.192C39.44 528.752 38.64 527.432 37.04 526.232C35.44 524.952 33.2 524.312 30.32 524.312C27.36 524.312 25.12 525.032 23.6 526.472C22 527.912 21.2 529.352 21.2 530.792L21.2 544.952L39.44 544.952ZM86.72 450.03C86.72 456.51 85.48 462.39 83 467.67C80.52 472.95 77.28 477.47 73.28 481.23C69.2 484.99 64.56 487.91 59.36 489.99C54.16 492.07 48.8 493.11 43.28 493.11C37.68 493.11 32.28 492.03 27.08 489.87C21.88 487.71 17.32 484.71 13.4 480.87C9.39999 476.95 6.23999 472.35 3.91999 467.07C1.51999 461.71 0.319986 455.87 0.319986 449.55C0.319985 443.07 1.55999 437.19 4.03999 431.91C6.51999 426.63 9.79999 422.11 13.88 418.35C17.96 414.59 22.6 411.71 27.8 409.71C33 407.63 38.32 406.59 43.76 406.59C49.36 406.59 54.76 407.67 59.96 409.83C65.08 411.99 69.64 414.99 73.64 418.83C77.56 422.67 80.72 427.27 83.12 432.63C85.52 437.91 86.72 443.71 86.72 450.03ZM43.52 469.35C46.4 469.35 49.2 468.95 51.92 468.15C54.56 467.35 56.92 466.15 59 464.55C61.08 462.95 62.76 460.95 64.04 458.55C65.32 456.07 65.96 453.15 65.96 449.79C65.96 446.43 65.32 443.51 64.04 441.03C62.68 438.55 60.96 436.55 58.88 435.03C56.72 433.43 54.28 432.27 51.56 431.55C48.84 430.75 46.08 430.35 43.28 430.35C40.4 430.35 37.64 430.75 35 431.55C32.28 432.35 29.92 433.59 27.92 435.27C25.84 436.87 24.2 438.91 23 441.39C21.72 443.79 21.08 446.63 21.08 449.91C21.08 453.27 21.72 456.19 23 458.67C24.28 461.07 26 463.07 28.16 464.67C30.24 466.27 32.64 467.47 35.36 468.27C38 468.99 40.72 469.35 43.52 469.35ZM86 396.672L0.799984 396.672L0.799983 363.912C0.799983 356.872 1.91998 350.672 4.15998 345.312C6.39998 339.952 9.43998 335.472 13.28 331.872C17.12 328.272 21.64 325.552 26.84 323.712C31.96 321.872 37.44 320.952 43.28 320.952C49.76 320.952 55.64 321.992 60.92 324.072C66.12 326.072 70.6 328.952 74.36 332.712C78.04 336.472 80.92 340.992 83 346.272C85 351.552 86 357.432 86 363.912L86 396.672ZM43.28 344.712C40 344.712 37 345.152 34.28 346.032C31.56 346.912 29.24 348.192 27.32 349.872C25.4 351.472 23.92 353.472 22.88 355.872C21.76 358.272 21.2 360.952 21.2 363.912L21.2 373.272L65.6 373.272L65.6 363.912C65.6 360.872 65.04 358.152 63.92 355.752C62.8 353.352 61.24 351.352 59.24 349.752C57.24 348.072 54.88 346.832 52.16 346.032C49.44 345.152 46.48 344.712 43.28 344.712ZM65.96 273.574C65.96 270.854 65.36 268.534 64.16 266.614C62.96 264.694 61.4 263.134 59.48 261.934C57.48 260.734 55.2 259.854 52.64 259.294C50.08 258.734 47.4 258.454 44.6 258.454L0.799978 258.454L0.799977 235.054L44.6 235.054C50.52 235.054 56.08 235.814 61.28 237.334C66.4 238.854 70.84 241.214 74.6 244.414C78.36 247.614 81.32 251.654 83.48 256.534C85.64 261.334 86.72 267.014 86.72 273.574C86.72 280.374 85.6 286.214 83.36 291.094C81.04 295.894 77.96 299.854 74.12 302.974C70.28 306.094 65.84 308.374 60.8 309.814C55.68 311.254 50.28 311.974 44.6 311.974L0.799981 311.974L0.79998 288.574L44.6 288.574C47.4 288.574 50.12 288.294 52.76 287.734C55.32 287.174 57.6 286.294 59.6 285.094C61.52 283.894 63.08 282.374 64.28 280.534C65.4 278.614 65.96 276.294 65.96 273.574ZM42.68 226.274C37.48 226.274 32.36 225.314 27.32 223.394C22.28 221.394 17.76 218.514 13.76 214.754C9.75998 210.994 6.51998 206.434 4.03998 201.074C1.55998 195.714 0.319974 189.594 0.319974 182.714C0.319974 174.474 2.03998 167.354 5.47998 161.354C8.83998 155.274 13.32 150.754 18.92 147.794L31.64 165.674C29.56 166.474 27.84 167.554 26.48 168.914C25.12 170.194 24.04 171.634 23.24 173.234C22.44 174.834 21.88 176.514 21.56 178.274C21.24 179.954 21.08 181.594 21.08 183.194C21.08 186.554 21.76 189.474 23.12 191.954C24.4 194.354 26.12 196.354 28.28 197.954C30.36 199.474 32.76 200.634 35.48 201.434C38.12 202.154 40.76 202.514 43.4 202.514C46.36 202.514 49.2 202.074 51.92 201.194C54.64 200.314 57.04 199.034 59.12 197.354C61.2 195.674 62.88 193.634 64.16 191.234C65.36 188.754 65.96 185.994 65.96 182.954C65.96 181.354 65.8 179.714 65.48 178.034C65.08 176.354 64.48 174.754 63.68 173.234C62.8 171.634 61.72 170.234 60.44 169.034C59.08 167.754 57.44 166.754 55.52 166.034L66.92 146.954C70.04 148.234 72.84 150.194 75.32 152.834C77.8 155.394 79.88 158.354 81.56 161.714C83.24 164.994 84.52 168.554 85.4 172.394C86.28 176.154 86.72 179.834 86.72 183.434C86.72 189.754 85.48 195.554 83 200.834C80.44 206.034 77.08 210.554 72.92 214.394C68.76 218.154 64.04 221.074 58.76 223.154C53.48 225.234 48.12 226.274 42.68 226.274ZM21.2 72.2653L21.2 96.7453L86 96.7453L86 120.145L21.2 120.145L21.2 144.745L0.799973 144.745L0.79997 72.2653L21.2 72.2653ZM28.64 12.1425C27.2 14.5425 25.92 17.0225 24.8 19.5825C23.84 21.7425 22.96 24.1825 22.16 26.9025C21.28 29.5425 20.84 32.1425 20.84 34.7025C20.84 36.7825 21.16 38.4625 21.8 39.7425C22.44 40.9425 23.52 41.5425 25.04 41.5425C26.16 41.5425 27.08 41.1825 27.8 40.4625C28.52 39.7425 29.2 38.7025 29.84 37.3425C30.4 35.9825 30.96 34.3425 31.52 32.4225C32.08 30.4225 32.76 28.1825 33.56 25.7025C34.76 21.7825 36.08 18.2625 37.52 15.1425C38.96 11.9425 40.68 9.22249 42.68 6.98249C44.6 4.74249 46.96 3.02249 49.76 1.82249C52.56 0.622496 55.96 0.0224959 59.96 0.0224958C65.08 0.0224955 69.4 0.982495 72.92 2.90249C76.36 4.74249 79.12 7.22249 81.2 10.3425C83.28 13.3825 84.8 16.8625 85.76 20.7825C86.64 24.6225 87.08 28.5025 87.08 32.4225C87.08 35.5425 86.84 38.7425 86.36 42.0225C85.88 45.3025 85.2 48.5825 84.32 51.8625C83.44 55.0625 82.4 58.1825 81.2 61.2225C80 64.1825 78.64 66.9425 77.12 69.5025L56.6 59.4225C58.36 56.6225 59.92 53.7025 61.28 50.6625C62.48 48.1025 63.56 45.2225 64.52 42.0225C65.48 38.7425 65.96 35.4225 65.96 32.0625C65.96 29.5025 65.64 27.7425 65 26.7825C64.28 25.7425 63.36 25.2225 62.24 25.2225C61.04 25.2225 60.04 25.7425 59.24 26.7825C58.36 27.7425 57.6 29.1025 56.96 30.8625C56.32 32.6225 55.68 34.6625 55.04 36.9825C54.4 39.2225 53.64 41.6225 52.76 44.1825C51.48 47.9425 50.12 51.1825 48.68 53.9025C47.16 56.6225 45.48 58.8625 43.64 60.6225C41.72 62.3825 39.56 63.7025 37.16 64.5825C34.76 65.3825 32 65.7825 28.88 65.7825C24.16 65.7825 20 64.9425 16.4 63.2625C12.8 61.5025 9.79997 59.1425 7.39997 56.1825C4.99997 53.2225 3.19997 49.8625 1.99997 46.1025C0.71997 42.2625 0.0799708 38.2225 0.0799706 33.9825C0.0799704 30.8625 0.399971 27.8225 1.03997 24.8625C1.59997 21.9025 2.35997 19.0625 3.31997 16.3425C4.19997 13.5425 5.19997 10.9425 6.31997 8.5425C7.35997 6.1425 8.35997 3.9825 9.31996 2.06249L28.64 12.1425Z" fill="white"/>
</svg>
