<svg width="87" height="460" viewBox="0 0 87 460" fill="none" xmlns="http://www.w3.org/2000/svg">
<path d="M86 460.68L0.799995 460.68L0.799994 427.92C0.799993 418.48 2.71999 410.6 6.55999 404.28C10.32 397.88 15.44 393.08 21.92 389.88C28.32 386.6 35.44 384.96 43.28 384.96C51.92 384.96 59.44 386.76 65.84 390.36C72.24 393.88 77.2 398.88 80.72 405.36C84.24 411.76 86 419.28 86 427.92L86 460.68ZM43.28 408.72C38.88 408.72 35.04 409.48 31.76 411C28.4 412.52 25.8 414.72 23.96 417.6C22.12 420.48 21.2 423.92 21.2 427.92L21.2 437.28L65.6 437.28L65.6 427.92C65.6 423.84 64.64 420.4 62.72 417.6C60.8 414.72 58.16 412.52 54.8 411C51.36 409.48 47.52 408.72 43.28 408.72ZM86 374.782L0.799991 374.782L0.79999 351.382L86 351.382L86 374.782ZM86.6 299.856C86.6 305.376 85.64 310.656 83.72 315.696C81.72 320.656 78.84 325.056 75.08 328.896C71.24 332.736 66.64 335.776 61.28 338.016C55.84 340.176 49.64 341.256 42.68 341.256C36.68 341.256 31.12 340.136 26 337.896C20.88 335.656 16.4 332.576 12.56 328.656C8.63999 324.656 5.59999 320.016 3.43999 314.736C1.27999 309.456 0.199989 303.736 0.199989 297.576C0.199988 289.896 1.87999 282.936 5.23999 276.696C8.51999 270.456 13.04 265.816 18.8 262.776L32.12 280.176C28.76 281.856 26.08 284.376 24.08 287.736C22 291.096 20.96 294.656 20.96 298.416C20.96 301.216 21.52 303.776 22.64 306.096C23.76 308.416 25.32 310.456 27.32 312.216C29.32 313.896 31.72 315.216 34.52 316.176C37.24 317.056 40.24 317.496 43.52 317.496C46.88 317.496 49.92 317.016 52.64 316.056C55.36 315.096 57.72 313.776 59.72 312.096C61.64 310.336 63.16 308.256 64.28 305.856C65.32 303.456 65.84 300.776 65.84 297.816C65.84 294.056 64.92 290.456 63.08 287.016C61.16 283.576 58.48 280.456 55.04 277.656L77.84 277.656C83.68 284.056 86.6 291.456 86.6 299.856ZM57.44 278.856L57.44 294.576L40.64 294.576L40.64 259.536L86 259.536L86 278.856L57.44 278.856ZM86 247.985L0.799986 247.985L0.799985 224.585L86 224.585L86 247.985ZM21.2 143.539L21.2 168.019L86 168.019L86 191.419L21.2 191.419L21.2 216.019L0.799984 216.019L0.799981 143.539L21.2 143.539ZM0.79998 123.187L0.799979 97.0275L86 69.9075L86 93.6675L69.32 98.8275L69.32 121.507L86 126.547L86 150.427L0.79998 123.187ZM53.72 102.547L23.72 110.107L53.72 118.027L53.72 102.547ZM86 62.8284L0.799978 62.8284L0.799977 39.4284L65.6 39.4284L65.6 0.788433L86 0.788432L86 62.8284Z" fill="#0D0F16"/>
</svg>
