<svg width="167" height="880" viewBox="0 0 167 880" fill="none" xmlns="http://www.w3.org/2000/svg">
<path opacity="0.25" d="M165 881.97L1.69999 881.97L1.69999 819.18C1.69999 801.087 5.37998 785.983 12.74 773.87C19.9467 761.603 29.76 752.403 42.18 746.27C54.4467 739.983 68.0933 736.84 83.12 736.84C99.68 736.84 114.093 740.29 126.36 747.19C138.627 753.937 148.133 763.52 154.88 775.94C161.627 788.207 165 802.62 165 819.18L165 881.97ZM83.12 782.38C74.6867 782.38 67.3267 783.837 61.04 786.75C54.6 789.663 49.6167 793.88 46.09 799.4C42.5633 804.92 40.8 811.513 40.8 819.18L40.8 837.12L125.9 837.12L125.9 819.18C125.9 811.36 124.06 804.767 120.38 799.4C116.7 793.88 111.64 789.663 105.2 786.75C98.6067 783.837 91.2467 782.38 83.12 782.38ZM165 717.331L1.69998 717.331L1.69998 672.481L165 672.481L165 717.331ZM166.15 573.723C166.15 584.303 164.31 594.423 160.63 604.083C156.797 613.59 151.277 622.023 144.07 629.383C136.71 636.743 127.893 642.57 117.62 646.863C107.193 651.003 95.31 653.073 81.97 653.073C70.47 653.073 59.8133 650.927 50 646.633C40.1867 642.34 31.6 636.437 24.24 628.923C16.7266 621.257 10.9 612.363 6.75998 602.243C2.61998 592.123 0.549979 581.16 0.549978 569.353C0.549977 554.633 3.76998 541.293 10.21 529.333C16.4966 517.373 25.16 508.48 36.2 502.653L61.73 536.003C55.29 539.223 50.1533 544.053 46.32 550.493C42.3333 556.933 40.34 563.757 40.34 570.963C40.34 576.33 41.4133 581.237 43.56 585.683C45.7067 590.13 48.6967 594.04 52.53 597.413C56.3633 600.633 60.9633 603.163 66.33 605.003C71.5433 606.69 77.2933 607.533 83.58 607.533C90.02 607.533 95.8467 606.613 101.06 604.773C106.273 602.933 110.797 600.403 114.63 597.183C118.31 593.81 121.223 589.823 123.37 585.223C125.363 580.623 126.36 575.487 126.36 569.813C126.36 562.607 124.597 555.707 121.07 549.113C117.39 542.52 112.253 536.54 105.66 531.173L149.36 531.173C160.553 543.44 166.15 557.623 166.15 573.723ZM110.26 533.473L110.26 563.603L78.06 563.603L78.06 496.443L165 496.443L165 533.473L110.26 533.473ZM165 474.304L1.69997 474.304L1.69997 429.454L165 429.454L165 474.304ZM40.8 274.116L40.8 321.036L165 321.036L165 365.886L40.8 365.886L40.8 413.036L1.69997 413.036L1.69996 274.116L40.8 274.116ZM1.69996 235.109L1.69996 184.969L165 132.989L165 178.529L133.03 188.419L133.03 231.889L165 241.549L165 287.319L1.69996 235.109ZM103.13 195.549L45.63 210.039L103.13 225.219L103.13 195.549ZM165 119.421L1.69996 119.421L1.69996 74.5712L125.9 74.5712L125.9 0.511163L165 0.511161L165 119.421Z" fill="#0D0F16"/>
</svg>
