<svg width="168" height="1000" viewBox="0 0 168 1000" fill="none" xmlns="http://www.w3.org/2000/svg">
<path opacity="0.03" d="M165 1233.39L1.69999 1233.39L1.69999 1163.01C1.69999 1155.04 3.38665 1147.68 6.75999 1140.93C9.97998 1134.19 14.2733 1128.44 19.64 1123.68C24.8533 1118.78 30.91 1114.94 37.81 1112.18C44.5567 1109.42 51.38 1108.04 58.28 1108.04C65.4867 1108.04 72.54 1109.35 79.44 1111.95C86.1867 1114.56 92.2433 1118.24 97.61 1122.99C102.823 1127.59 107.04 1133.27 110.26 1140.01C113.327 1146.61 114.86 1153.89 114.86 1161.86L114.86 1188.54L165 1188.54L165 1233.39ZM75.76 1188.54L75.76 1164.85C75.76 1162.09 74.5333 1159.56 72.08 1157.26C69.4733 1154.81 64.8733 1153.58 58.28 1153.58C51.5333 1153.58 46.9333 1154.96 44.48 1157.72C42.0267 1160.48 40.8 1163.24 40.8 1166L40.8 1188.54L75.76 1188.54ZM165 1090.09L1.69998 1090.09L1.69998 1015.11C1.69998 1007.14 3.38665 999.778 6.75998 993.031C9.97998 986.284 14.2733 980.534 19.64 975.781C24.8533 970.874 30.91 967.041 37.81 964.281C44.5567 961.521 51.38 960.141 58.28 960.141C67.7867 960.141 76.68 962.211 84.96 966.351C93.0867 970.491 99.7567 976.241 104.97 983.601L165 949.101L165 999.701L114.86 1028.45L114.86 1045.24L165 1045.24L165 1090.09ZM75.76 1045.24L75.76 1016.95C75.76 1014.19 74.2267 1011.66 71.16 1009.36C68.0933 1006.91 63.8 1005.68 58.28 1005.68C52.6066 1005.68 48.3133 1007.06 45.4 1009.82C42.3333 1012.58 40.8 1015.34 40.8 1018.1L40.8 1045.24L75.76 1045.24ZM166.38 863.307C166.38 875.727 164.003 886.997 159.25 897.117C154.497 907.237 148.287 915.901 140.62 923.107C132.8 930.314 123.907 935.911 113.94 939.897C103.973 943.884 93.7 945.877 83.12 945.877C72.3866 945.877 62.0366 943.807 52.07 939.667C42.1033 935.527 33.3633 929.777 25.85 922.417C18.1833 914.904 12.1266 906.087 7.67998 895.967C3.07998 885.694 0.779973 874.501 0.779973 862.387C0.779972 849.967 3.15664 838.697 7.90998 828.577C12.6633 818.457 18.95 809.794 26.77 802.587C34.59 795.381 43.4833 789.861 53.45 786.027C63.4166 782.041 73.6133 780.047 84.04 780.047C94.7733 780.047 105.123 782.117 115.09 786.257C124.903 790.397 133.643 796.147 141.31 803.507C148.823 810.867 154.88 819.684 159.48 829.957C164.08 840.077 166.38 851.194 166.38 863.307ZM83.58 900.337C89.1 900.337 94.4666 899.571 99.68 898.037C104.74 896.504 109.263 894.204 113.25 891.137C117.237 888.071 120.457 884.237 122.91 879.637C125.363 874.884 126.59 869.287 126.59 862.847C126.59 856.407 125.363 850.811 122.91 846.057C120.303 841.304 117.007 837.471 113.02 834.557C108.88 831.491 104.203 829.267 98.99 827.887C93.7766 826.354 88.4866 825.587 83.12 825.587C77.6 825.587 72.31 826.354 67.25 827.887C62.0366 829.421 57.5133 831.797 53.68 835.017C49.6933 838.084 46.55 841.994 44.25 846.747C41.7966 851.347 40.57 856.791 40.57 863.077C40.57 869.517 41.7966 875.114 44.25 879.867C46.7033 884.467 50 888.301 54.14 891.367C58.1266 894.434 62.7266 896.734 67.94 898.267C73 899.647 78.2133 900.337 83.58 900.337ZM165 761.038L1.69997 761.038L1.69997 698.248C1.69997 684.755 3.84663 672.872 8.13996 662.598C12.4333 652.325 18.26 643.738 25.62 636.838C32.98 629.938 41.6433 624.725 51.61 621.198C61.4233 617.672 71.9266 615.908 83.12 615.908C95.54 615.908 106.81 617.902 116.93 621.888C126.897 625.722 135.483 631.242 142.69 638.448C149.743 645.655 155.263 654.318 159.25 664.438C163.083 674.558 165 685.828 165 698.248L165 761.038ZM83.12 661.448C76.8333 661.448 71.0833 662.292 65.87 663.978C60.6566 665.665 56.21 668.118 52.53 671.338C48.85 674.405 46.0133 678.238 44.02 682.838C41.8733 687.438 40.8 692.575 40.8 698.248L40.8 716.188L125.9 716.188L125.9 698.248C125.9 692.422 124.827 687.208 122.68 682.608C120.533 678.008 117.543 674.175 113.71 671.108C109.877 667.888 105.353 665.512 100.14 663.978C94.9266 662.292 89.2533 661.448 83.12 661.448ZM126.59 525.1C126.59 519.886 125.44 515.44 123.14 511.76C120.84 508.08 117.85 505.09 114.17 502.79C110.337 500.49 105.967 498.803 101.06 497.73C96.1533 496.656 91.0166 496.12 85.65 496.12L1.69996 496.12L1.69996 451.27L85.65 451.27C96.9966 451.27 107.653 452.726 117.62 455.64C127.433 458.553 135.943 463.076 143.15 469.21C150.357 475.343 156.03 483.086 160.17 492.44C164.31 501.64 166.38 512.526 166.38 525.1C166.38 538.133 164.233 549.326 159.94 558.68C155.493 567.88 149.59 575.47 142.23 581.45C134.87 587.43 126.36 591.8 116.7 594.56C106.887 597.32 96.5366 598.7 85.65 598.7L1.69996 598.7L1.69996 553.85L85.65 553.85C91.0166 553.85 96.23 553.313 101.29 552.24C106.197 551.166 110.567 549.48 114.4 547.18C118.08 544.88 121.07 541.966 123.37 538.44C125.517 534.76 126.59 530.313 126.59 525.1ZM81.97 434.442C72.0033 434.442 62.19 432.602 52.53 428.922C42.87 425.089 34.2066 419.569 26.54 412.362C18.8733 405.155 12.6633 396.415 7.90996 386.142C3.15662 375.869 0.779951 364.139 0.77995 350.952C0.779949 335.159 4.07662 321.512 10.67 310.012C17.11 298.359 25.6966 289.695 36.43 284.022L60.81 318.292C56.8233 319.825 53.5266 321.895 50.92 324.502C48.3133 326.955 46.2433 329.715 44.71 332.782C43.1766 335.849 42.1033 339.069 41.49 342.442C40.8766 345.662 40.57 348.805 40.57 351.872C40.57 358.312 41.8733 363.909 44.48 368.662C46.9333 373.262 50.23 377.095 54.37 380.162C58.3566 383.075 62.9566 385.299 68.17 386.832C73.23 388.212 78.29 388.902 83.35 388.902C89.0233 388.902 94.4666 388.059 99.68 386.372C104.893 384.685 109.493 382.232 113.48 379.012C117.467 375.792 120.687 371.882 123.14 367.282C125.44 362.529 126.59 357.239 126.59 351.412C126.59 348.345 126.283 345.202 125.67 341.982C124.903 338.762 123.753 335.695 122.22 332.782C120.533 329.715 118.463 327.032 116.01 324.732C113.403 322.279 110.26 320.362 106.58 318.982L128.43 282.412C134.41 284.865 139.777 288.622 144.53 293.682C149.283 298.589 153.27 304.262 156.49 310.702C159.71 316.989 162.163 323.812 163.85 331.172C165.537 338.379 166.38 345.432 166.38 352.332C166.38 364.445 164.003 375.562 159.25 385.682C154.343 395.649 147.903 404.312 139.93 411.672C131.957 418.879 122.91 424.475 112.79 428.462C102.67 432.449 92.3966 434.442 81.97 434.442ZM40.7999 139.259L40.7999 186.179L165 186.179L165 231.029L40.8 231.029L40.8 278.179L1.69995 278.179L1.69994 139.259L40.7999 139.259ZM55.0599 24.0231C52.2999 28.6231 49.8466 33.3764 47.6999 38.2831C45.8599 42.4231 44.1733 47.0998 42.6399 52.3131C40.9533 57.3731 40.1099 62.3565 40.1099 67.2631C40.1099 71.2498 40.7233 74.4698 41.9499 76.9231C43.1766 79.2231 45.2466 80.3731 48.1599 80.3731C50.3066 80.3731 52.0699 79.6831 53.4499 78.3031C54.8299 76.9231 56.1333 74.9298 57.3599 72.3231C58.4333 69.7165 59.5066 66.5731 60.5799 62.8931C61.6533 59.0598 62.9566 54.7665 64.4899 50.0131C66.7899 42.4998 69.3199 35.7531 72.0799 29.7731C74.8399 23.6398 78.1366 18.4264 81.9699 14.1331C85.6499 9.83978 90.1733 6.54311 95.5399 4.24311C100.907 1.94312 107.423 0.793117 115.09 0.793117C124.903 0.793116 133.183 2.63312 139.93 6.31311C146.523 9.83978 151.813 14.5931 155.8 20.5731C159.787 26.3998 162.7 33.0698 164.54 40.5831C166.227 47.9431 167.07 55.3798 167.07 62.8931C167.07 68.8731 166.61 75.0064 165.69 81.2931C164.77 87.5798 163.467 93.8664 161.78 100.153C160.093 106.286 158.1 112.266 155.8 118.093C153.5 123.766 150.893 129.056 147.98 133.963L108.65 114.643C112.023 109.276 115.013 103.68 117.62 97.8531C119.92 92.9465 121.99 87.4264 123.83 81.2931C125.67 75.0064 126.59 68.6431 126.59 62.2031C126.59 57.2964 125.977 53.9231 124.75 52.0831C123.37 50.0898 121.607 49.0931 119.46 49.0931C117.16 49.0931 115.243 50.0898 113.71 52.0831C112.023 53.9231 110.567 56.5298 109.34 59.9031C108.113 63.2764 106.887 67.1864 105.66 71.6331C104.433 75.9264 102.977 80.5265 101.29 85.4331C98.8366 92.6398 96.2299 98.8498 93.4699 104.063C90.5566 109.276 87.3366 113.57 83.8099 116.943C80.1299 120.316 75.9899 122.846 71.3899 124.533C66.7899 126.066 61.4999 126.833 55.5199 126.833C46.4733 126.833 38.4999 125.223 31.5999 122.003C24.6999 118.63 18.9499 114.106 14.3499 108.433C9.74994 102.76 6.29994 96.3198 3.99994 89.1131C1.54661 81.7531 0.319944 74.0098 0.319944 65.8831C0.319943 59.9031 0.933278 54.0765 2.15995 48.4031C3.23327 42.7298 4.68994 37.2865 6.52994 32.0731C8.21661 26.7065 10.1333 21.7231 12.2799 17.1231C14.2733 12.5231 16.1899 8.38312 18.0299 4.70311L55.0599 24.0231Z" fill="white"/>
</svg>
